<svg xmlns="http://www.w3.org/2000/svg" width="1em" height="1em" viewBox="0 0 95 88">
  <path fill="#6b7280" d="M47.2 0C26.6 0 8.3 13.2 2.5 32.5c-.4 1.2.3 2.4 1.5 2.8 1.2.4 2.4-.3 2.8-1.5C12 16.3 28.6 4.4 47.2 4.4c18.7 0 35.2 11.9 40.5 29.4.4 1.2 1.6 1.8 2.8 1.5 1.2-.4 1.8-1.6 1.5-2.8C86.1 13.2 67.9 0 47.2 0z"/>
  <path fill="#6b7280" d="M27 45.3c-4.4 0-7.9 3.6-7.9 7.9v11c0 4.4 3.6 7.9 7.9 7.9s7.9-3.6 7.9-7.9v-11c0-4.4-3.5-7.9-7.9-7.9zm3.5 18.9c0 1.9-1.6 3.5-3.5 3.5s-3.5-1.6-3.5-3.5v-11c0-1.9 1.6-3.5 3.5-3.5s3.5 1.6 3.5 3.5v11zM67.5 45.3c-4.4 0-7.9 3.6-7.9 7.9v11c0 4.4 3.6 7.9 7.9 7.9s7.9-3.6 7.9-7.9v-11c0-4.4-3.6-7.9-7.9-7.9zM71 64.2c0 1.9-1.6 3.5-3.5 3.5s-3.5-1.6-3.5-3.5v-11c0-1.9 1.6-3.5 3.5-3.5s3.5 1.6 3.5 3.5v11zM34 74.4c-.8-1-2.2-1.1-3.1-.4-1 .8-1.1 2.2-.4 3.1 4.6 5.7 11.4 8.9 18.6 8.9h.1c7.2 0 14-3.2 18.6-8.9.7-1 .6-2.4-.4-3.1-1-.8-2.4-.6-3.1.4-3.8 4.7-9.5 7.3-15.2 7.3-5.6 0-11.3-2.6-15.1-7.3z"/>
</svg>
